# xmcd CD database file
# Copyright (C) 1993-1998 Ti Kan
# 
# Track frame offsets:
#     150
#     15395
#     29365
#     41002
#     53122
#     68092
#     80625
#     93872
#     110075
#     121395
#     134920
#     152495
#     164780
#     179650
#     196137
#     211467
#     225962
#     241240
#     258972
#     273870
# 
# Disc length: 3890 seconds
# 
# Revision: 1
# Processed by: cddbd v1.4b41PL1 Copyright (c) Steve Scherf et al.
# Submitted via: DiscPlay 4.0.4
# 
DISCID=150f3014
DTITLE=John Conlee - 20 Greatest Hits
DYEAR=1900
DGENRE=
TTITLE0=Rose Colored Glasses
TTITLE1=Lady Lay Down
TTITLE2=Backside Of Thirty
TTITLE3=Before My Time
TTITLE4=Friday Night Blues
TTITLE5=She Can't Say That Anymore
TTITLE6=What I Had With You
TTITLE7=Miss Emily's Picture
TTITLE8=Busted
TTITLE9=Nothing Behind You,Nothing In Sight
TTITLE10=I Don't Remember Loving You
TTITLE11=Common Man
TTITLE12=I'm Only In It For The Love
TTITLE13=In My Eyes
TTITLE14=As Long As I'm Rockin' With You
TTITLE15=Way Back
TTITLE16=Years After You
TTITLE17=Working Man
TTITLE18=Blue Highway
TTITLE19=Old School
EXTD=
EXTT0=
EXTT1=
EXTT2=
EXTT3=
EXTT4=
EXTT5=
EXTT6=
EXTT7=
EXTT8=
EXTT9=
EXTT10=
EXTT11=
EXTT12=
EXTT13=
EXTT14=
EXTT15=
EXTT16=
EXTT17=
EXTT18=
EXTT19=
PLAYORDER=
